<?xml version="1.0" standalone="no"?><!DOCTYPE svg PUBLIC "-//W3C//DTD SVG 1.1//EN" "http://www.w3.org/Graphics/SVG/1.1/DTD/svg11.dtd"><svg t="1640323570154" class="icon" viewBox="0 0 1024 1024" version="1.1" xmlns="http://www.w3.org/2000/svg" p-id="1040" width="320" height="320" data-spm-anchor-id="a313x.7781069.0.i3" xmlns:xlink="http://www.w3.org/1999/xlink"><defs><style type="text/css"></style></defs><path d="M171.43808 532.19328h2.048-2.048z m258.048 59.392l-112.64-88.064h-2.048l-2.048 2.048c-30.72 28.672-69.632 47.104-114.688 47.104s-86.016-18.432-116.736-47.104l-2.048-2.048c-28.672-30.72-47.104-69.632-47.104-114.688s18.432-86.016 47.104-116.736c30.72-28.672 71.68-47.104 116.736-47.104s86.016 18.432 116.736 47.104l2.048 2.048 112.64-88.064c-10.24-16.384-14.336-38.912-14.336-59.392 0-32.768 14.336-61.44 36.864-83.968s51.2-36.864 81.92-36.864c32.768 0 61.44 14.336 83.968 36.864 24.576 18.432 38.912 51.2 38.912 83.968s-14.336 61.44-36.864 83.968c-20.48 20.48-53.248 36.864-83.968 36.864-30.72 0-59.392-12.288-81.92-32.768l-114.688 88.064c16.384 26.624 26.624 55.296 26.624 88.064s-10.24 61.44-26.624 88.064l112.64 88.064c22.528-18.432 51.2-32.768 81.92-32.768 32.768 0 61.44 14.336 83.968 36.864 22.528 22.528 36.864 53.248 36.864 86.016s-14.336 61.44-36.864 83.968c-22.528 22.528-53.248 36.864-83.968 36.864-32.768 0-61.44-14.336-83.968-36.864-22.528-22.528-36.864-53.248-36.864-83.968 4.096-26.624 8.192-45.056 18.432-65.536z m147.456 18.432c-12.288-12.288-26.624-18.432-43.008-18.432s-30.72 8.192-43.008 18.432c-12.288 12.288-18.432 26.624-18.432 43.008s8.192 30.72 16.384 43.008c12.288 12.288 26.624 16.384 43.008 16.384s30.72-8.192 43.008-16.384c12.288-12.288 16.384-26.624 16.384-43.008 4.096-18.432-4.096-32.768-14.336-43.008z m69.632-174.08l120.832 129.024 2.048-2.048c24.576-24.576 55.296-38.912 90.112-38.912 36.864 0 69.632 14.336 94.208 38.912h2.048c24.576 24.576 38.912 55.296 38.912 90.112 0 36.864-14.336 69.632-38.912 94.208s-57.344 38.912-94.208 38.912c-36.864 0-69.632-14.336-94.208-38.912v-2.048l-208.896 129.024c8.192 14.336 12.288 28.672 12.288 47.104 0 26.624-10.24 51.2-28.672 67.584-16.384 16.384-40.96 28.672-67.584 28.672-26.624 0-51.2-10.24-67.584-28.672-16.384-16.384-28.672-40.96-28.672-67.584s10.24-51.2 28.672-67.584c16.384-16.384 40.96-28.672 67.584-28.672 26.624 0 47.104 10.24 65.536 26.624l208.896-129.024c-12.288-18.432-18.432-43.008-18.432-69.632 0-26.624 8.192-51.2 18.432-69.632l-118.784-126.976c-16.384 16.384-40.96 26.624-65.536 26.624-26.624 0-51.2-10.24-67.584-28.672-16.384-16.384-28.672-40.96-28.672-67.584 0-26.624 10.24-51.2 28.672-67.584 16.384-16.384 40.96-28.672 67.584-28.672 26.624 0 51.2 12.288 67.584 28.672 16.384 16.384 28.672 40.96 28.672 67.584-2.048 18.432-4.096 34.816-14.336 49.152z m-114.688-14.336c10.24 10.24 22.528 14.336 32.768 14.336s26.624-4.096 32.768-14.336c10.24-10.24 14.336-22.528 14.336-32.768 0-14.336-4.096-26.624-14.336-32.768-10.24-10.24-22.528-14.336-32.768-14.336s-26.624 4.096-32.768 14.336c-10.24 10.24-14.336 22.528-14.336 32.768 0 14.336 6.144 26.624 14.336 32.768z" fill="#4d90fe" p-id="1041" data-spm-anchor-id="a313x.7781069.0.i4"></path></svg>